<mxfile host="app.diagrams.net" modified="2023-11-29T05:10:24.976Z" agent="Mozilla/5.0 (Macintosh; Intel Mac OS X 10_15_7) AppleWebKit/537.36 (KHTML, like Gecko) Chrome/119.0.0.0 Safari/537.36" etag="uK6fnIgE7qzL--Q-fn2k" version="22.1.4" type="github">
  <diagram name="페이지-1" id="c59ZvJkLYjni74Y9zitI">
    <mxGraphModel dx="1363" dy="836" grid="1" gridSize="10" guides="1" tooltips="1" connect="1" arrows="1" fold="1" page="1" pageScale="1" pageWidth="1600" pageHeight="900" math="0" shadow="0">
      <root>
        <mxCell id="0" />
        <mxCell id="1" parent="0" />
        <mxCell id="kChg-eIzCC2hViK7Fw_T-1" value="작가" style="sketch=0;pointerEvents=1;shadow=0;dashed=0;html=1;strokeColor=none;fillColor=#505050;labelPosition=center;verticalLabelPosition=bottom;verticalAlign=top;outlineConnect=0;align=center;shape=mxgraph.office.users.communications;fontSize=16;fontStyle=1" vertex="1" parent="1">
          <mxGeometry x="100" y="80" width="54" height="58" as="geometry" />
        </mxCell>
        <mxCell id="kChg-eIzCC2hViK7Fw_T-2" value="&lt;font style=&quot;font-size: 16px;&quot;&gt;&lt;b&gt;독자&lt;/b&gt;&lt;/font&gt;" style="sketch=0;pointerEvents=1;shadow=0;dashed=0;html=1;strokeColor=none;fillColor=#505050;labelPosition=center;verticalLabelPosition=bottom;verticalAlign=top;outlineConnect=0;align=center;shape=mxgraph.office.users.mobile_user;" vertex="1" parent="1">
          <mxGeometry x="95" y="440" width="59" height="56" as="geometry" />
        </mxCell>
        <mxCell id="kChg-eIzCC2hViK7Fw_T-3" value="" style="shape=mxgraph.signs.tech.mail;html=1;pointerEvents=1;fillColor=#000000;strokeColor=none;verticalLabelPosition=bottom;verticalAlign=top;align=center;" vertex="1" parent="1">
          <mxGeometry x="330" y="99.5" width="60" height="38.5" as="geometry" />
        </mxCell>
        <mxCell id="kChg-eIzCC2hViK7Fw_T-4" value="&lt;b&gt;&lt;font style=&quot;font-size: 18px;&quot;&gt;내밀함&lt;/font&gt;&lt;/b&gt;" style="rounded=1;whiteSpace=wrap;html=1;fillColor=default;strokeWidth=3;strokeColor=#000000;gradientColor=#FFF1bF;gradientDirection=radial;" vertex="1" parent="1">
          <mxGeometry x="570" y="80" width="70" height="440" as="geometry" />
        </mxCell>
        <mxCell id="kChg-eIzCC2hViK7Fw_T-5" value="&lt;b&gt;&lt;font style=&quot;font-size: 16px;&quot;&gt;데이터베이스&lt;/font&gt;&lt;/b&gt;" style="html=1;verticalLabelPosition=bottom;align=center;labelBackgroundColor=#ffffff;verticalAlign=top;strokeWidth=2;strokeColor=#000000;shadow=0;dashed=0;shape=mxgraph.ios7.icons.data;" vertex="1" parent="1">
          <mxGeometry x="810" y="260" width="70" height="80" as="geometry" />
        </mxCell>
        <mxCell id="kChg-eIzCC2hViK7Fw_T-6" value="" style="shape=mxgraph.signs.tech.mail;html=1;pointerEvents=1;fillColor=#000000;strokeColor=none;verticalLabelPosition=bottom;verticalAlign=top;align=center;" vertex="1" parent="1">
          <mxGeometry x="330" y="450" width="60" height="38.5" as="geometry" />
        </mxCell>
        <mxCell id="kChg-eIzCC2hViK7Fw_T-8" value="" style="endArrow=classic;html=1;rounded=0;entryX=-0.043;entryY=0.505;entryDx=0;entryDy=0;entryPerimeter=0;strokeWidth=3;startArrow=classic;startFill=0;exitX=1;exitY=0.5;exitDx=0;exitDy=0;" edge="1" parent="1" source="kChg-eIzCC2hViK7Fw_T-4" target="kChg-eIzCC2hViK7Fw_T-5">
          <mxGeometry relative="1" as="geometry">
            <mxPoint x="640" y="289.29" as="sourcePoint" />
            <mxPoint x="740" y="289.29" as="targetPoint" />
          </mxGeometry>
        </mxCell>
        <mxCell id="kChg-eIzCC2hViK7Fw_T-9" value="&lt;b&gt;&lt;font style=&quot;font-size: 14px;&quot;&gt;메일 저장 및 읽기&lt;/font&gt;&lt;/b&gt;" style="edgeLabel;resizable=0;html=1;align=center;verticalAlign=middle;" connectable="0" vertex="1" parent="kChg-eIzCC2hViK7Fw_T-8">
          <mxGeometry relative="1" as="geometry" />
        </mxCell>
        <mxCell id="kChg-eIzCC2hViK7Fw_T-10" value="" style="endArrow=classic;html=1;rounded=0;entryX=0;entryY=0.5;entryDx=0;entryDy=0;entryPerimeter=0;strokeWidth=3;" edge="1" parent="1" target="kChg-eIzCC2hViK7Fw_T-3">
          <mxGeometry relative="1" as="geometry">
            <mxPoint x="154" y="120" as="sourcePoint" />
            <mxPoint x="254" y="120" as="targetPoint" />
          </mxGeometry>
        </mxCell>
        <mxCell id="kChg-eIzCC2hViK7Fw_T-11" value="&lt;b&gt;&lt;font style=&quot;font-size: 14px;&quot;&gt;메일 작성&lt;/font&gt;&lt;/b&gt;" style="edgeLabel;resizable=0;html=1;align=center;verticalAlign=middle;" connectable="0" vertex="1" parent="kChg-eIzCC2hViK7Fw_T-10">
          <mxGeometry relative="1" as="geometry" />
        </mxCell>
        <mxCell id="kChg-eIzCC2hViK7Fw_T-13" value="" style="endArrow=classic;html=1;rounded=0;entryX=0;entryY=0.5;entryDx=0;entryDy=0;entryPerimeter=0;strokeWidth=3;" edge="1" parent="1">
          <mxGeometry relative="1" as="geometry">
            <mxPoint x="154" y="481" as="sourcePoint" />
            <mxPoint x="330" y="480" as="targetPoint" />
          </mxGeometry>
        </mxCell>
        <mxCell id="kChg-eIzCC2hViK7Fw_T-14" value="&lt;b&gt;&lt;font style=&quot;font-size: 14px;&quot;&gt;답장 작성&lt;/font&gt;&lt;/b&gt;" style="edgeLabel;resizable=0;html=1;align=center;verticalAlign=middle;" connectable="0" vertex="1" parent="kChg-eIzCC2hViK7Fw_T-13">
          <mxGeometry relative="1" as="geometry" />
        </mxCell>
        <mxCell id="kChg-eIzCC2hViK7Fw_T-15" value="" style="endArrow=none;html=1;rounded=0;entryX=0;entryY=0.5;entryDx=0;entryDy=0;entryPerimeter=0;strokeWidth=3;endFill=0;startArrow=classic;startFill=1;" edge="1" parent="1">
          <mxGeometry relative="1" as="geometry">
            <mxPoint x="154" y="461" as="sourcePoint" />
            <mxPoint x="330" y="460" as="targetPoint" />
          </mxGeometry>
        </mxCell>
        <mxCell id="kChg-eIzCC2hViK7Fw_T-16" value="&lt;b&gt;&lt;font style=&quot;font-size: 14px;&quot;&gt;메일 수신&lt;/font&gt;&lt;/b&gt;" style="edgeLabel;resizable=0;html=1;align=center;verticalAlign=middle;" connectable="0" vertex="1" parent="kChg-eIzCC2hViK7Fw_T-15">
          <mxGeometry relative="1" as="geometry" />
        </mxCell>
        <mxCell id="kChg-eIzCC2hViK7Fw_T-19" value="" style="endArrow=classic;html=1;rounded=0;strokeWidth=3;startArrow=classic;startFill=1;strokeColor=#999999;" edge="1" parent="1">
          <mxGeometry relative="1" as="geometry">
            <mxPoint x="120" y="430" as="sourcePoint" />
            <mxPoint x="120" y="170" as="targetPoint" />
          </mxGeometry>
        </mxCell>
        <mxCell id="kChg-eIzCC2hViK7Fw_T-20" value="&lt;span style=&quot;font-size: 14px;&quot;&gt;&lt;b&gt;&lt;font color=&quot;#999999&quot;&gt;쌍방향 소통&lt;/font&gt;&lt;/b&gt;&lt;/span&gt;" style="edgeLabel;resizable=0;html=1;align=center;verticalAlign=middle;" connectable="0" vertex="1" parent="kChg-eIzCC2hViK7Fw_T-19">
          <mxGeometry relative="1" as="geometry" />
        </mxCell>
        <mxCell id="kChg-eIzCC2hViK7Fw_T-22" value="" style="endArrow=classic;html=1;rounded=0;entryX=0;entryY=0.5;entryDx=0;entryDy=0;entryPerimeter=0;strokeWidth=3;startArrow=classic;startFill=1;" edge="1" parent="1">
          <mxGeometry relative="1" as="geometry">
            <mxPoint x="390" y="469.69" as="sourcePoint" />
            <mxPoint x="566" y="468.69" as="targetPoint" />
          </mxGeometry>
        </mxCell>
        <mxCell id="kChg-eIzCC2hViK7Fw_T-23" value="&lt;b&gt;&lt;font style=&quot;font-size: 14px;&quot;&gt;발송 및 저장&lt;/font&gt;&lt;/b&gt;" style="edgeLabel;resizable=0;html=1;align=center;verticalAlign=middle;" connectable="0" vertex="1" parent="kChg-eIzCC2hViK7Fw_T-22">
          <mxGeometry relative="1" as="geometry" />
        </mxCell>
        <mxCell id="kChg-eIzCC2hViK7Fw_T-25" value="" style="endArrow=classic;html=1;rounded=0;entryX=0;entryY=0.5;entryDx=0;entryDy=0;entryPerimeter=0;strokeWidth=3;" edge="1" parent="1">
          <mxGeometry relative="1" as="geometry">
            <mxPoint x="390" y="119.22" as="sourcePoint" />
            <mxPoint x="566" y="118.22" as="targetPoint" />
          </mxGeometry>
        </mxCell>
        <mxCell id="kChg-eIzCC2hViK7Fw_T-26" value="&lt;b&gt;&lt;font style=&quot;font-size: 14px;&quot;&gt;저장 &lt;font color=&quot;#999999&quot;&gt;및 스케쥴링&lt;/font&gt;&lt;/font&gt;&lt;/b&gt;" style="edgeLabel;resizable=0;html=1;align=center;verticalAlign=middle;" connectable="0" vertex="1" parent="kChg-eIzCC2hViK7Fw_T-25">
          <mxGeometry relative="1" as="geometry" />
        </mxCell>
        <mxCell id="kChg-eIzCC2hViK7Fw_T-27" value="&lt;b&gt;&lt;font style=&quot;font-size: 16px;&quot;&gt;구독&lt;/font&gt;&lt;/b&gt;" style="shape=rhombus;html=1;dashed=0;whiteSpace=wrap;perimeter=rhombusPerimeter;strokeWidth=3;" vertex="1" parent="1">
          <mxGeometry x="330" y="275" width="60" height="50" as="geometry" />
        </mxCell>
        <mxCell id="kChg-eIzCC2hViK7Fw_T-28" value="" style="endArrow=classic;html=1;rounded=0;entryX=0;entryY=1;entryDx=0;entryDy=0;strokeWidth=3;" edge="1" parent="1" source="kChg-eIzCC2hViK7Fw_T-2" target="kChg-eIzCC2hViK7Fw_T-27">
          <mxGeometry relative="1" as="geometry">
            <mxPoint x="154" y="371" as="sourcePoint" />
            <mxPoint x="330" y="370" as="targetPoint" />
          </mxGeometry>
        </mxCell>
        <mxCell id="kChg-eIzCC2hViK7Fw_T-29" value="&lt;span style=&quot;font-size: 14px;&quot;&gt;&lt;b&gt;조회, 구독 및 취소&lt;/b&gt;&lt;/span&gt;" style="edgeLabel;resizable=0;html=1;align=center;verticalAlign=middle;" connectable="0" vertex="1" parent="kChg-eIzCC2hViK7Fw_T-28">
          <mxGeometry relative="1" as="geometry" />
        </mxCell>
        <mxCell id="kChg-eIzCC2hViK7Fw_T-30" value="" style="endArrow=classic;html=1;rounded=0;entryX=0;entryY=0;entryDx=0;entryDy=0;strokeWidth=3;" edge="1" parent="1" target="kChg-eIzCC2hViK7Fw_T-27">
          <mxGeometry relative="1" as="geometry">
            <mxPoint x="154" y="151" as="sourcePoint" />
            <mxPoint x="330" y="150" as="targetPoint" />
          </mxGeometry>
        </mxCell>
        <mxCell id="kChg-eIzCC2hViK7Fw_T-31" value="&lt;b&gt;&lt;font style=&quot;font-size: 14px;&quot;&gt;구독 관리 &lt;font color=&quot;#999999&quot;&gt;및 결제 수익&lt;/font&gt;&lt;/font&gt;&lt;/b&gt;" style="edgeLabel;resizable=0;html=1;align=center;verticalAlign=middle;" connectable="0" vertex="1" parent="kChg-eIzCC2hViK7Fw_T-30">
          <mxGeometry relative="1" as="geometry" />
        </mxCell>
        <mxCell id="kChg-eIzCC2hViK7Fw_T-32" value="" style="endArrow=classic;html=1;rounded=0;entryX=0;entryY=0.5;entryDx=0;entryDy=0;entryPerimeter=0;strokeWidth=3;startArrow=classic;startFill=1;" edge="1" parent="1">
          <mxGeometry relative="1" as="geometry">
            <mxPoint x="390" y="300.47" as="sourcePoint" />
            <mxPoint x="566" y="299.47" as="targetPoint" />
          </mxGeometry>
        </mxCell>
        <mxCell id="kChg-eIzCC2hViK7Fw_T-33" value="&lt;b&gt;&lt;font style=&quot;font-size: 14px;&quot;&gt;모델 관리&lt;/font&gt;&lt;/b&gt;" style="edgeLabel;resizable=0;html=1;align=center;verticalAlign=middle;" connectable="0" vertex="1" parent="kChg-eIzCC2hViK7Fw_T-32">
          <mxGeometry relative="1" as="geometry" />
        </mxCell>
      </root>
    </mxGraphModel>
  </diagram>
</mxfile>
